<svg xmlns="http://www.w3.org/2000/svg" version="1.0" width="936" height="852" viewBox="0 0 702 639"><path d="M154.7 6.8c-3.7 3.7-6.7 7.2-6.7 7.7s11.1 12.1 24.7 25.7L197.5 65l-25 25-25 25 7.8 7.7 7.7 7.8 18.5-18.5L200 93.5V157l-2.7.6c-6.1 1.4-16.8 8-22.7 13.9-6.9 6.9-11.7 15.6-13.7 25-1.8 8-1.8 66.4-.1 75 3.7 18.5 19.5 35.2 37.7 40 7.8 2 23.6 2 30.6-.1 13.5-4 25.6-13.5 32.1-25.4 6-10.8 6.3-13.7 6.3-51.5 0-37.6-.4-40.7-6-51-6.7-12.2-18.1-21.9-29.7-25.3l-5.8-1.7v-63l18.5 18.5 18.5 18.5 7.7-7.8 7.8-7.7-25-25-25-25 25-25 25-25-7.8-7.7L263-.5l-25 25-25 25-24.8-24.8C174.6 11.1 163 0 162.5 0c-.6 0-4.1 3-7.8 6.8zM222.9 181c7.9 2.1 16.5 11.5 19.3 21 1.8 6.4 1.8 57.5 0 64.7-2.1 8-7.9 15.3-15.3 19.3-5.3 2.8-7.3 3.3-12.8 3.3-11.6 0-22.6-7.1-27-17.4-5.4-12.4-5.4-62.6-.1-74.7 2.5-5.6 8.1-11.6 13.3-14.4 7-3.6 13.5-4.1 22.6-1.8zM16 235v77h24l.2-53.9.3-54L74 258l33.5 54H130V158h-24l-.2 53.4-.3 53.4-33-53.2-33-53.1-11.8-.3-11.7-.3V235zM296 235v77h24l.2-53.9.3-54L354 258l33.5 54H410V158h-24l-.2 53.4-.3 53.4-33-53.2-33-53.1-11.8-.3-11.7-.3V235z"/><g><path d="M16 410v77h37c31.4 0 37.6-.2 41.7-1.6 11.7-4 22.5-14.9 26.1-26.3 2.6-8.4 2.3-24.8-.6-32.2-3-7.6-8.1-13.2-15.1-16.7-5.4-2.7-5.7-3-3.8-3.9 1.2-.6 4.5-2.9 7.3-5.1 18.9-14.9 15.1-50.8-6.6-62.6-9.7-5.3-12.5-5.6-50.7-5.6H16v77zm67.5-53.6C91.8 360 96 366.5 96 375.7c-.1 9.7-4.2 16.3-12.5 19.9-3.2 1.5-7.8 1.9-23.7 2.2l-19.8.4v-44.4l19.8.4c15.7.4 20.5.8 23.7 2.2zm2.3 65C97 426.2 102 440 96.6 451.5c-5.3 11.3-9.3 12.8-35.8 13.3l-20.8.4v-46.4l20.8.4c17.1.4 21.4.7 25 2.2zM148 410v77h24V333h-24v77zM204 410v77h24l.2-53.9.3-54L262 433l33.5 54H318V333h-24l-.2 53.4-.3 53.4-33-53.2-33-53.1-11.8-.3-11.7-.3V410zM391 333.4c0 .2-12.1 34.4-27 76.1-14.8 41.7-27 76.2-27 76.7 0 .4 5.6.8 12.4.8h12.4l3-8.3c1.6-4.5 4.2-12.1 5.8-17l2.8-8.7h56.1l5.9 17 5.8 17h12.4c6.8 0 12.4-.4 12.4-.8 0-.5-12.1-35-27-76.7-14.8-41.6-27-75.9-27-76.1 0-.2-4.7-.4-10.5-.4s-10.5.2-10.5.4zm28.4 87.8l3.4 10.8h-42.6l6.4-19.8c3.5-10.8 8.3-25.8 10.6-33.1l4.3-13.5 7.2 22.5c4 12.3 8.9 27.2 10.7 33.1zM484 410v77h24v-66h28.5l15.5 33 15.5 32.9 14.2.1H596l-17-33.3c-9.4-18.4-17-33.6-17-33.9 0-.4 2.5-2 5.6-3.8 16.2-9.1 24.5-27.3 21.6-46.9-2.4-15-10.5-26-24-32.4l-6.7-3.2-37.2-.3-37.3-.3V410zm65.5-55c11.8 1.9 17.9 9.2 17.9 21 0 7.6-2.5 13.2-7.6 17.5-6.3 5.4-8.7 5.8-31 6.3l-20.8.4V354h17.8c9.7 0 20.4.5 23.7 1zM592 333.5c0 .3 10.1 20.8 22.5 45.5l22.5 45v63h22v-63l21.5-43c11.8-23.6 21.5-44.1 21.5-45.5v-2.6l-11.6.3-11.7.3-15.1 32.7c-8.3 18-15.3 32.8-15.6 32.8-.3 0-7.3-14.8-15.7-32.8l-15.2-32.7-12.5-.3c-6.9-.1-12.6 0-12.6.3z"/></g><g fill="#662483"><path d="M360.7 509.7c-6.6 2.2-14.1 9.1-16.3 15-2.6 6.8-2.4 16.6.5 22.6 4.7 9.7 13.3 14.2 32.1 16.7 4.7.6 10 1.9 11.8 2.7 8.1 3.8 8.2 16 .1 20.4-8.9 4.7-31.2 1.4-39.2-5.8-1.7-1.6-2.1-1.4-7.5 4.1l-5.7 5.7 2.5 2.1c4 3.3 13.1 7.5 20.1 9.3 9.5 2.5 29.5 1.7 36.4-1.4 9.7-4.3 14.5-11.3 15.3-22.1 1.2-17.8-8.3-27.6-29.9-30.7-12-1.7-18-4-20.5-7.8-3.5-5.4-1-13 5.3-16 7-3.4 22.9-1.3 31.1 4.1 2.4 1.6 2.6 1.5 4.3-.7 5.1-6.5 7-9.9 6.4-11-1.1-1.7-12.3-6.5-18.3-7.8-7.7-1.6-22.8-1.3-28.5.6zM18 556v47h65v-13H34v-81H18v47zM97 556v47h65v-13h-49v-28h42v-13h-42v-27h49v-13H97v47zM177 556v47h65v-13h-49v-28h42v-13h-42v-27h49v-13h-65v47zM256 555.9V603h22c19.7 0 22.5-.2 27.4-2.1 6.4-2.3 14.6-9.3 18.1-15.4 3.5-5.9 4.9-18.3 4.2-36.7-.6-17.3-2.4-22.6-10.2-30.3-8.4-8.4-10.5-9-37.7-9.3l-23.8-.3v47zm43-31.7c4.1 1.8 8.5 6 10.7 10.2 2 3.8 2.9 27.6 1.5 36.9-1.3 8.1-4.3 12.7-10.5 15.9-3.4 1.7-6.5 2.2-16.4 2.6l-12.3.5v-68.5l11.8.4c7.3.3 13 1 15.2 2z"/></g></svg>