<?xml version="1.0" encoding="UTF-8" standalone="no"?>
<svg
   xmlns:dc="http://purl.org/dc/elements/1.1/"
   xmlns:cc="http://creativecommons.org/ns#"
   xmlns:rdf="http://www.w3.org/1999/02/22-rdf-syntax-ns#"
   xmlns:svg="http://www.w3.org/2000/svg"
   xmlns="http://www.w3.org/2000/svg"
   xmlns:sodipodi="http://sodipodi.sourceforge.net/DTD/sodipodi-0.dtd"
   xmlns:inkscape="http://www.inkscape.org/namespaces/inkscape"
   version="1.0"
   width="417.98364"
   height="417.98364"
   viewBox="0 0 313.48772 313.48773"
   id="svg12"
   sodipodi:docname="logo.svg"
   inkscape:version="0.92.4 5da689c313, 2019-01-14"
   inkscape:export-filename="/home/rich/git/nonbinaryleeds/assets/logos/logo@1024px.png"
   inkscape:export-xdpi="235.18623"
   inkscape:export-ydpi="235.18623">
  <metadata
     id="metadata18">
    <rdf:RDF>
      <cc:Work
         rdf:about="">
        <dc:format>image/svg+xml</dc:format>
        <dc:type
           rdf:resource="http://purl.org/dc/dcmitype/StillImage" />
        <dc:title></dc:title>
      </cc:Work>
    </rdf:RDF>
  </metadata>
  <defs
     id="defs16" />
  <sodipodi:namedview
     pagecolor="#ffffff"
     bordercolor="#666666"
     borderopacity="1"
     objecttolerance="10"
     gridtolerance="10"
     guidetolerance="10"
     inkscape:pageopacity="0"
     inkscape:pageshadow="2"
     inkscape:window-width="1920"
     inkscape:window-height="1014"
     id="namedview14"
     showgrid="false"
     fit-margin-top="0"
     fit-margin-left="0"
     fit-margin-right="0"
     fit-margin-bottom="0"
     inkscape:zoom="0.55399061"
     inkscape:cx="-191.75237"
     inkscape:cy="-25.105787"
     inkscape:window-x="0"
     inkscape:window-y="34"
     inkscape:window-maximized="1"
     inkscape:current-layer="svg12" />
  <path
     inkscape:connector-curvature="0"
     d="m 98.443862,7.2999962 c -3.7,3.6999998 -6.7,7.1999998 -6.7,7.6999998 0,0.5 11.099998,12.1 24.699998,25.7 l 24.8,24.8 -25,25 L 91.243862,115.5 l 7.8,7.7 7.699998,7.8 18.5,-18.5 18.5,-18.500004 V 157.5 l -2.7,0.6 c -6.1,1.4 -16.8,8 -22.7,13.9 -6.9,6.9 -11.7,15.6 -13.7,25 -1.8,8 -1.8,66.4 -0.1,75 3.7,18.5 19.5,35.2 37.7,40 7.8,2 23.6,2 30.6,-0.1 13.5,-4 25.6,-13.5 32.1,-25.4 6,-10.8 6.3,-13.7 6.3,-51.5 0,-37.6 -0.4,-40.7 -6,-51 -6.7,-12.2 -18.1,-21.9 -29.7,-25.3 l -5.8,-1.7 V 93.999996 l 18.5,18.500004 18.5,18.5 7.7,-7.8 7.8,-7.7 -25,-25.000004 -25,-25 25,-25 25,-25 -7.8,-7.6999998 -7.7,-7.8000000671876 -25,24.9999998671876 -25,25 -24.8,-24.8 c -13.6,-13.6 -25.2,-24.69999986 -25.7,-24.69999986 -0.6,0 -4.1,3.00000006 -7.799998,6.80000006 z M 166.64386,181.5 c 7.9,2.1 16.5,11.5 19.3,21 1.8,6.4 1.8,57.5 0,64.7 -2.1,8 -7.9,15.3 -15.3,19.3 -5.3,2.8 -7.3,3.3 -12.8,3.3 -11.6,0 -22.6,-7.1 -27,-17.4 -5.4,-12.4 -5.4,-62.6 -0.1,-74.7 2.5,-5.6 8.1,-11.6 13.3,-14.4 7,-3.6 13.5,-4.1 22.6,-1.8 z"
     id="path2"
     sodipodi:nodetypes="csscccccccccscccccscsccccccccccccccsscccccscccc" />
</svg>
